<svg xmlns="http://www.w3.org/2000/svg" viewBox="0 0 200 52" fill="none">
  <!-- Sfondo blu -->
  <rect width="200" height="52" rx="6" fill="#0066CC"/>

  <!-- Icona grafo a rete (stile dati.gov.it) -->
  <!-- Nodi -->
  <circle cx="14" cy="10" r="3" fill="white"/>
  <circle cx="30" cy="6"  r="3" fill="white"/>
  <circle cx="38" cy="18" r="3" fill="white"/>
  <circle cx="26" cy="26" r="3" fill="white"/>
  <circle cx="10" cy="26" r="3" fill="white"/>
  <circle cx="6"  cy="16" r="3" fill="white"/>
  <circle cx="22" cy="14" r="2" fill="white"/>

  <!-- Connessioni -->
  <line x1="14" y1="10" x2="30" y2="6"  stroke="white" stroke-width="1.5" stroke-dasharray="2 2"/>
  <line x1="30" y1="6"  x2="38" y2="18" stroke="white" stroke-width="1.5" stroke-dasharray="2 2"/>
  <line x1="38" y1="18" x2="26" y2="26" stroke="white" stroke-width="1.5" stroke-dasharray="2 2"/>
  <line x1="26" y1="26" x2="10" y2="26" stroke="white" stroke-width="1.5" stroke-dasharray="2 2"/>
  <line x1="10" y1="26" x2="6"  y2="16" stroke="white" stroke-width="1.5" stroke-dasharray="2 2"/>
  <line x1="6"  y1="16" x2="14" y2="10" stroke="white" stroke-width="1.5" stroke-dasharray="2 2"/>
  <line x1="22" y1="14" x2="30" y2="6"  stroke="white" stroke-width="1.2" stroke-dasharray="2 2"/>
  <line x1="22" y1="14" x2="38" y2="18" stroke="white" stroke-width="1.2" stroke-dasharray="2 2"/>
  <line x1="22" y1="14" x2="26" y2="26" stroke="white" stroke-width="1.2" stroke-dasharray="2 2"/>
  <line x1="22" y1="14" x2="14" y2="10" stroke="white" stroke-width="1.2" stroke-dasharray="2 2"/>

  <!-- Testo dati.gov.it -->
  <text x="48" y="22" font-family="'Titillium Web', Arial, sans-serif" font-size="16" font-weight="700" fill="white">dati.gov.it</text>
  <!-- Testo sottotitolo -->
  <text x="48" y="38" font-family="'Titillium Web', Arial, sans-serif" font-size="10" fill="rgba(255,255,255,0.85)">i dati aperti della PA italiana</text>
</svg>
